<?xml version="1.0" encoding="UTF-8" standalone="no"?>
<!-- Created with Inkscape (http://www.inkscape.org/) -->

<svg
   xmlns:dc="http://purl.org/dc/elements/1.1/"
   xmlns:cc="http://creativecommons.org/ns#"
   xmlns:rdf="http://www.w3.org/1999/02/22-rdf-syntax-ns#"
   xmlns:svg="http://www.w3.org/2000/svg"
   xmlns="http://www.w3.org/2000/svg"
   xmlns:sodipodi="http://sodipodi.sourceforge.net/DTD/sodipodi-0.dtd"
   xmlns:inkscape="http://www.inkscape.org/namespaces/inkscape"
   width="108.82658mm"
   height="62.543102mm"
   viewBox="0 0 385.60601 221.60942"
   id="svg2"
   version="1.1"
   inkscape:version="0.91 r13725"
   sodipodi:docname="tokenFilter.svg">
  <sodipodi:namedview
     id="base"
     pagecolor="#ffffff"
     bordercolor="#666666"
     borderopacity="1.0"
     inkscape:pageopacity="0.0"
     inkscape:pageshadow="2"
     inkscape:zoom="1.979899"
     inkscape:cx="222.54713"
     inkscape:cy="126.13427"
     inkscape:document-units="px"
     inkscape:current-layer="layer1"
     showgrid="false"
     inkscape:window-width="1600"
     inkscape:window-height="847"
     inkscape:window-x="1272"
     inkscape:window-y="-8"
     inkscape:window-maximized="1"
     fit-margin-top="0"
     fit-margin-left="0"
     fit-margin-right="0"
     fit-margin-bottom="0" />
  <defs
     id="defs4">
    <marker
       inkscape:stockid="StopL"
       orient="auto"
       refY="0"
       refX="0"
       id="marker7728"
       style="overflow:visible"
       inkscape:isstock="true">
      <path
         id="path7730"
         d="M 0,5.65 0,-5.65"
         style="fill:none;fill-opacity:0.75;fill-rule:evenodd;stroke:#000000;stroke-width:1pt;stroke-opacity:1"
         transform="scale(0.8,0.8)"
         inkscape:connector-curvature="0" />
    </marker>
    <marker
       inkscape:stockid="Arrow2Lend"
       orient="auto"
       refY="0"
       refX="0"
       id="marker7558"
       style="overflow:visible"
       inkscape:isstock="true">
      <path
         id="path7560"
         style="fill:#000000;fill-opacity:1;fill-rule:evenodd;stroke:#000000;stroke-width:0.625;stroke-linejoin:round;stroke-opacity:1"
         d="M 8.7185878,4.0337352 -2.2072895,0.01601326 8.7185884,-4.0017078 c -1.7454984,2.3720609 -1.7354408,5.6174519 -6e-7,8.035443 z"
         transform="matrix(-1.1,0,0,-1.1,-1.1,0)"
         inkscape:connector-curvature="0" />
    </marker>
    <marker
       inkscape:isstock="true"
       style="overflow:visible"
       id="marker5622"
       refX="0"
       refY="0"
       orient="auto"
       inkscape:stockid="StopL"
       inkscape:collect="always">
      <path
         transform="scale(0.8,0.8)"
         style="fill:none;fill-opacity:0.75;fill-rule:evenodd;stroke:#000000;stroke-width:1pt;stroke-opacity:1"
         d="M 0,5.65 0,-5.65"
         id="path5624"
         inkscape:connector-curvature="0" />
    </marker>
    <marker
       inkscape:isstock="true"
       style="overflow:visible"
       id="marker5540"
       refX="0"
       refY="0"
       orient="auto"
       inkscape:stockid="StopL">
      <path
         transform="scale(0.8,0.8)"
         style="fill:none;fill-opacity:0.75;fill-rule:evenodd;stroke:#000000;stroke-width:1pt;stroke-opacity:1"
         d="M 0,5.65 0,-5.65"
         id="path5542"
         inkscape:connector-curvature="0" />
    </marker>
    <marker
       inkscape:stockid="Arrow2Mend"
       orient="auto"
       refY="0"
       refX="0"
       id="Arrow2Mend"
       style="overflow:visible"
       inkscape:isstock="true">
      <path
         id="path4187"
         style="fill:#000000;fill-opacity:1;fill-rule:evenodd;stroke:#000000;stroke-width:0.625;stroke-linejoin:round;stroke-opacity:1"
         d="M 8.7185878,4.0337352 -2.2072895,0.01601326 8.7185884,-4.0017078 c -1.7454984,2.3720609 -1.7354408,5.6174519 -6e-7,8.035443 z"
         transform="scale(-0.6,-0.6)"
         inkscape:connector-curvature="0" />
    </marker>
    <marker
       inkscape:stockid="Arrow2Lend"
       orient="auto"
       refY="0"
       refX="0"
       id="marker5370"
       style="overflow:visible"
       inkscape:isstock="true">
      <path
         id="path5372"
         style="fill:#000000;fill-opacity:1;fill-rule:evenodd;stroke:#000000;stroke-width:0.625;stroke-linejoin:round;stroke-opacity:1"
         d="M 8.7185878,4.0337352 -2.2072895,0.01601326 8.7185884,-4.0017078 c -1.7454984,2.3720609 -1.7354408,5.6174519 -6e-7,8.035443 z"
         transform="matrix(-1.1,0,0,-1.1,-1.1,0)"
         inkscape:connector-curvature="0" />
    </marker>
    <marker
       inkscape:stockid="Arrow2Lend"
       orient="auto"
       refY="0"
       refX="0"
       id="marker4936"
       style="overflow:visible"
       inkscape:isstock="true">
      <path
         id="path4938"
         style="fill:#000000;fill-opacity:1;fill-rule:evenodd;stroke:#000000;stroke-width:0.625;stroke-linejoin:round;stroke-opacity:1"
         d="M 8.7185878,4.0337352 -2.2072895,0.01601326 8.7185884,-4.0017078 c -1.7454984,2.3720609 -1.7354408,5.6174519 -6e-7,8.035443 z"
         transform="matrix(-1.1,0,0,-1.1,-1.1,0)"
         inkscape:connector-curvature="0" />
    </marker>
    <marker
       inkscape:stockid="StopL"
       orient="auto"
       refY="0"
       refX="0"
       id="StopL"
       style="overflow:visible"
       inkscape:isstock="true"
       inkscape:collect="always">
      <path
         id="path4329"
         d="M 0,5.65 0,-5.65"
         style="fill:none;fill-opacity:0.75;fill-rule:evenodd;stroke:#000000;stroke-width:1pt;stroke-opacity:1"
         transform="scale(0.8,0.8)"
         inkscape:connector-curvature="0" />
    </marker>
    <marker
       inkscape:isstock="true"
       style="overflow:visible"
       id="marker4646"
       refX="0"
       refY="0"
       orient="auto"
       inkscape:stockid="Arrow2Lend"
       inkscape:collect="always">
      <path
         transform="matrix(-1.1,0,0,-1.1,-1.1,0)"
         d="M 8.7185878,4.0337352 -2.2072895,0.01601326 8.7185884,-4.0017078 c -1.7454984,2.3720609 -1.7354408,5.6174519 -6e-7,8.035443 z"
         style="fill:#000000;fill-opacity:1;fill-rule:evenodd;stroke:#000000;stroke-width:0.625;stroke-linejoin:round;stroke-opacity:1"
         id="path4648"
         inkscape:connector-curvature="0" />
    </marker>
    <marker
       inkscape:isstock="true"
       style="overflow:visible"
       id="marker4636"
       refX="0"
       refY="0"
       orient="auto"
       inkscape:stockid="Arrow2Lend"
       inkscape:collect="always">
      <path
         transform="matrix(-1.1,0,0,-1.1,-1.1,0)"
         d="M 8.7185878,4.0337352 -2.2072895,0.01601326 8.7185884,-4.0017078 c -1.7454984,2.3720609 -1.7354408,5.6174519 -6e-7,8.035443 z"
         style="fill:#000000;fill-opacity:1;fill-rule:evenodd;stroke:#000000;stroke-width:0.625;stroke-linejoin:round;stroke-opacity:1"
         id="path4638"
         inkscape:connector-curvature="0" />
    </marker>
    <marker
       inkscape:stockid="Arrow2Lend"
       orient="auto"
       refY="0"
       refX="0"
       id="Arrow2Lend"
       style="overflow:visible"
       inkscape:isstock="true"
       inkscape:collect="always">
      <path
         id="path4181"
         style="fill:#000000;fill-opacity:1;fill-rule:evenodd;stroke:#000000;stroke-width:0.625;stroke-linejoin:round;stroke-opacity:1"
         d="M 8.7185878,4.0337352 -2.2072895,0.01601326 8.7185884,-4.0017078 c -1.7454984,2.3720609 -1.7354408,5.6174519 -6e-7,8.035443 z"
         transform="matrix(-1.1,0,0,-1.1,-1.1,0)"
         inkscape:connector-curvature="0" />
    </marker>
    <marker
       inkscape:isstock="true"
       style="overflow:visible"
       id="marker4540"
       refX="0"
       refY="0"
       orient="auto"
       inkscape:stockid="Arrow1Mend">
      <path
         transform="matrix(-0.4,0,0,-0.4,-4,0)"
         style="fill:#000000;fill-opacity:1;fill-rule:evenodd;stroke:#000000;stroke-width:1pt;stroke-opacity:1"
         d="M 0,0 5,-5 -12.5,0 5,5 0,0 Z"
         id="path4542"
         inkscape:connector-curvature="0" />
    </marker>
    <marker
       inkscape:isstock="true"
       style="overflow:visible"
       id="marker4530"
       refX="0"
       refY="0"
       orient="auto"
       inkscape:stockid="Arrow1Mend">
      <path
         transform="matrix(-0.4,0,0,-0.4,-4,0)"
         style="fill:#000000;fill-opacity:1;fill-rule:evenodd;stroke:#000000;stroke-width:1pt;stroke-opacity:1"
         d="M 0,0 5,-5 -12.5,0 5,5 0,0 Z"
         id="path4532"
         inkscape:connector-curvature="0" />
    </marker>
    <marker
       inkscape:isstock="true"
       style="overflow:visible"
       id="marker4458"
       refX="0"
       refY="0"
       orient="auto"
       inkscape:stockid="Arrow1Lend">
      <path
         transform="matrix(-0.8,0,0,-0.8,-10,0)"
         style="fill:#000000;fill-opacity:1;fill-rule:evenodd;stroke:#000000;stroke-width:1pt;stroke-opacity:1"
         d="M 0,0 5,-5 -12.5,0 5,5 0,0 Z"
         id="path4460"
         inkscape:connector-curvature="0" />
    </marker>
    <marker
       inkscape:isstock="true"
       style="overflow:visible"
       id="marker4436"
       refX="0"
       refY="0"
       orient="auto"
       inkscape:stockid="Arrow1Lend">
      <path
         transform="matrix(-0.8,0,0,-0.8,-10,0)"
         style="fill:#000000;fill-opacity:1;fill-rule:evenodd;stroke:#000000;stroke-width:1pt;stroke-opacity:1"
         d="M 0,0 5,-5 -12.5,0 5,5 0,0 Z"
         id="path4438"
         inkscape:connector-curvature="0" />
    </marker>
  </defs>
  <metadata
     id="metadata7">
    <rdf:RDF>
      <cc:Work
         rdf:about="">
        <dc:format>image/svg+xml</dc:format>
        <dc:type
           rdf:resource="http://purl.org/dc/dcmitype/StillImage" />
        <dc:title></dc:title>
      </cc:Work>
    </rdf:RDF>
  </metadata>
  <g
     inkscape:label="Layer 1"
     inkscape:groupmode="layer"
     id="layer1"
     transform="translate(-27.779195,-352.16172)">
    <path
       style="fill:none;fill-rule:evenodd;stroke:#000000;stroke-width:1px;stroke-linecap:butt;stroke-linejoin:miter;stroke-opacity:1"
       d="m 87.903577,465.46358 128.289373,0 0,73.74113 -129.299526,0"
       id="path4136"
       inkscape:connector-curvature="0" />
    <path
       style="fill:none;fill-rule:evenodd;stroke:#000000;stroke-width:1px;stroke-linecap:butt;stroke-linejoin:miter;stroke-opacity:1"
       d="m 193.4036,465.46358 0,73.23606"
       id="path4138"
       inkscape:connector-curvature="0" />
    <path
       inkscape:connector-curvature="0"
       id="path4140"
       d="m 167.4036,465.46358 0,73.23606"
       style="fill:none;fill-rule:evenodd;stroke:#000000;stroke-width:1px;stroke-linecap:butt;stroke-linejoin:miter;stroke-opacity:1" />
    <path
       style="fill:none;fill-rule:evenodd;stroke:#000000;stroke-width:1px;stroke-linecap:butt;stroke-linejoin:miter;stroke-opacity:1"
       d="m 141.4036,465.46358 0,73.23606"
       id="path4142"
       inkscape:connector-curvature="0" />
    <path
       inkscape:connector-curvature="0"
       id="path4144"
       d="m 115.4036,465.46358 0,73.23606"
       style="fill:none;fill-rule:evenodd;stroke:#000000;stroke-width:1px;stroke-linecap:butt;stroke-linejoin:miter;stroke-opacity:1" />
    <path
       style="fill:none;fill-rule:evenodd;stroke:#000000;stroke-width:1px;stroke-linecap:butt;stroke-linejoin:miter;stroke-opacity:1;marker-end:url(#marker4636)"
       d="m 27.779195,501.82907 79.296975,0"
       id="path4146"
       inkscape:connector-curvature="0" />
    <path
       style="fill:none;fill-rule:evenodd;stroke:#000000;stroke-width:1px;stroke-linecap:butt;stroke-linejoin:miter;stroke-opacity:1;marker-start:url(#StopL);marker-end:url(#StopL)"
       d="m 87.883271,556.88238 126.774149,0"
       id="path4148"
       inkscape:connector-curvature="0" />
    <path
       style="fill:none;fill-rule:evenodd;stroke:#000000;stroke-width:0.99999994px;stroke-linecap:butt;stroke-linejoin:miter;stroke-opacity:1;marker-end:url(#Arrow2Lend)"
       d="m 315.20902,425.44072 0,54.71573"
       id="path4150"
       inkscape:connector-curvature="0" />
    <path
       style="fill:none;fill-opacity:1;stroke:#000000;stroke-width:1;stroke-linecap:round;stroke-linejoin:miter;stroke-miterlimit:4;stroke-dasharray:none;stroke-dashoffset:0;stroke-opacity:1"
       id="path4152"
       sodipodi:type="arc"
       sodipodi:cx="315.12564"
       sodipodi:cy="501.74786"
       sodipodi:rx="19.697975"
       sodipodi:ry="19.697975"
       sodipodi:start="0"
       sodipodi:end="6.2824348"
       sodipodi:open="true"
       d="m 334.82362,501.74786 a 19.697975,19.697975 0 0 1 -19.69428,19.69798 19.697975,19.697975 0 0 1 -19.70167,-19.69058 19.697975,19.697975 0 0 1 19.68688,-19.70537 19.697975,19.697975 0 0 1 19.70906,19.68319" />
    <path
       inkscape:connector-curvature="0"
       id="path4154"
       d="m 216.15801,501.82861 77.19836,0"
       style="fill:none;fill-rule:evenodd;stroke:#000000;stroke-width:1px;stroke-linecap:butt;stroke-linejoin:miter;stroke-opacity:1;marker-end:url(#marker4646)" />
    <path
       style="fill:none;fill-rule:evenodd;stroke:#000000;stroke-width:1px;stroke-linecap:butt;stroke-linejoin:miter;stroke-opacity:1;marker-end:url(#marker4936)"
       d="m 334.51515,501.82861 77.19836,0"
       id="path4934"
       inkscape:connector-curvature="0" />
    <path
       style="fill:none;fill-rule:evenodd;stroke:#000000;stroke-width:1px;stroke-linecap:butt;stroke-linejoin:miter;stroke-opacity:1"
       d="m 260.61935,376.06505 13.17731,49.1784 81.77703,0 13.86422,-51.74199"
       id="path5348"
       inkscape:connector-curvature="0" />
    <path
       style="fill:none;fill-rule:evenodd;stroke:#000000;stroke-width:1px;stroke-linecap:butt;stroke-linejoin:miter;stroke-opacity:1"
       d="m 263.52079,386.67168 c 0,0 9.09473,4.79822 18.7167,2.52538 9.62198,-2.27285 24.38446,-2.65165 32.16112,-1.51523 7.77666,1.13642 16.21236,-4.04061 29.92037,-1.6415 13.70802,2.39911 21.61649,0.37881 21.61649,0.37881"
       id="path5358"
       inkscape:connector-curvature="0" />
    <path
       inkscape:connector-curvature="0"
       id="path5360"
       d="m 273.29418,398.3614 c 0,0 2.19344,5.09147 5.37822,3.17987 3.18479,-1.91162 7.70553,-1.75776 9.9299,-0.35001 2.22437,1.40775 5.39095,-3.43049 9.26532,-0.55586 3.87436,2.87464 6.50989,1.1523 6.50989,1.1523"
       style="fill:none;fill-rule:evenodd;stroke:#000000;stroke-width:1px;stroke-linecap:butt;stroke-linejoin:miter;stroke-opacity:1" />
    <path
       style="fill:none;fill-rule:evenodd;stroke:#000000;stroke-width:1px;stroke-linecap:butt;stroke-linejoin:miter;stroke-opacity:1"
       d="m 351.66901,399.37156 c 0,0 -2.19344,5.09147 -5.37822,3.17987 -3.18479,-1.91162 -7.70553,-1.75776 -9.9299,-0.35001 -2.22437,1.40775 -5.39095,-3.43049 -9.26532,-0.55586 -3.87436,2.87464 -6.50989,1.1523 -6.50989,1.1523"
       id="path5362"
       inkscape:connector-curvature="0" />
    <path
       style="fill:none;fill-rule:evenodd;stroke:#000000;stroke-width:0.99999994px;stroke-linecap:butt;stroke-linejoin:miter;stroke-opacity:1"
       d="m 281.35888,414.24609 c 0,0 1.83723,-5.09147 4.50481,-3.17987 2.66759,1.91162 6.45417,1.75776 8.3173,0.35001 1.86314,-1.40775 4.51547,3.43049 7.76065,0.55586 3.24518,-2.87464 5.4527,-1.1523 5.4527,-1.1523"
       id="path5364"
       inkscape:connector-curvature="0" />
    <path
       inkscape:connector-curvature="0"
       id="path5366"
       d="m 316.70431,410.98831 c 0,0 1.6235,5.09147 3.98076,3.17987 2.35726,-1.91162 5.70335,-1.75776 7.34974,-0.35001 1.6464,1.40775 3.99019,-3.43049 6.85785,-0.55586 2.86766,2.87464 4.81838,1.1523 4.81838,1.1523"
       style="fill:none;fill-rule:evenodd;stroke:#000000;stroke-width:1px;stroke-linecap:butt;stroke-linejoin:miter;stroke-opacity:1" />
    <path
       style="fill:none;fill-rule:evenodd;stroke:#000000;stroke-width:1px;stroke-linecap:butt;stroke-linejoin:miter;stroke-opacity:1;marker-end:url(#Arrow2Mend)"
       d="m 213.14219,383.13614 c 50.00255,-35.35534 68.18529,-9.59645 68.18529,-9.59645"
       id="path5368"
       inkscape:connector-curvature="0" />
    <path
       inkscape:connector-curvature="0"
       id="path5538"
       d="m 377.94806,425.29317 0,-38.79852"
       style="fill:none;fill-rule:evenodd;stroke:#000000;stroke-width:1px;stroke-linecap:butt;stroke-linejoin:miter;stroke-opacity:1;marker-start:url(#marker5540);marker-end:url(#marker5622)" />
    <g
       id="g6492"
       transform="matrix(0.2410096,0,0,0.24100949,175.13156,274.86371)">
      <g
         id="content"
         transform="matrix(1.0629921,0,0,-1.0629921,-186.02362,789.27165)"
         xml:space="preserve"
         stroke-miterlimit="10.433"
         font-style="normal"
         font-variant="normal"
         font-weight="normal"
         font-stretch="normal"
         font-size-adjust="none"
         letter-spacing="normal"
         word-spacing="normal"
         style="font-style:normal;font-variant:normal;font-weight:normal;font-stretch:normal;letter-spacing:normal;word-spacing:normal;text-anchor:start;fill:none;fill-opacity:1;fill-rule:evenodd;stroke:#000000;stroke-width:4.14921331;stroke-linecap:butt;stroke-linejoin:miter;stroke-miterlimit:10.43299961;stroke-dasharray:none;stroke-dashoffset:0;stroke-opacity:1"><path
           d="m 414.07,439.93 -30.46,0 -0.93,-11.22 1.25,0 c 0.68,8.04 1.43,9.68 8.95,9.68 0.91,0 2.2,0 2.7,-0.11 1.05,-0.19 1.05,-0.74 1.05,-1.89 l 0,-26.25 c 0,-1.71 0,-2.39 -5.24,-2.39 l -2,0 0,-1.55 c 2.05,0.16 7.13,0.16 9.43,0.16 2.29,0 7.42,0 9.47,-0.16 l 0,1.55 -2,0 c -5.24,0 -5.24,0.68 -5.24,2.39 l 0,26.25 c 0,1 0,1.7 0.91,1.89 0.54,0.11 1.89,0.11 2.84,0.11 7.52,0 8.27,-1.64 8.95,-9.68 l 1.25,0 z"
           id="path6495"
           inkscape:connector-curvature="0"
           style="fill:#000000;stroke-width:0" /><path
           d="m 436.15,416.86 -0.02,0.59 -0.04,0.59 -0.07,0.58 -0.1,0.57 -0.12,0.56 -0.15,0.55 -0.18,0.54 -0.19,0.53 -0.23,0.51 -0.24,0.5 -0.27,0.49 -0.29,0.47 -0.31,0.46 -0.32,0.44 -0.35,0.43 -0.37,0.4 -0.38,0.39 -0.4,0.37 -0.42,0.35 -0.43,0.32 -0.45,0.31 -0.46,0.28 -0.47,0.26 -0.49,0.24 -0.5,0.21 -0.51,0.18 -0.52,0.16 -0.53,0.13 -0.54,0.11 -0.55,0.07 -0.55,0.05 -0.57,0.01 -0.04,-1.09 c 2.18,0 4.32,-1.1 5.62,-3.24 1.3,-2.14 1.3,-5.03 1.3,-6.92 0,-1.8 0,-4.48 -1.1,-6.67 -1.09,-2.25 -3.28,-3.69 -5.78,-3.69 l 0,0 c -2.14,0 -4.33,1.05 -5.67,3.33 -1.25,2.2 -1.25,5.23 -1.25,7.03 0,1.94 0,4.63 1.19,6.83 1.36,2.28 3.69,3.33 5.69,3.33 l 0.04,1.09 c -6.22,0 -11.06,-5.42 -11.06,-11.65 0,-6.43 5.19,-11.21 11.02,-11.21 6.03,0 11.06,4.88 11.06,11.21 z"
           id="path6497"
           inkscape:connector-curvature="0"
           style="fill:#000000;stroke-width:0" /><path
           d="m 442.92,409.98 0,-0.1 0,-0.1 -0.01,-0.19 -0.01,-0.18 -0.01,-0.17 -0.02,-0.15 -0.02,-0.15 -0.03,-0.13 -0.04,-0.12 -0.04,-0.11 -0.05,-0.11 -0.06,-0.09 -0.06,-0.09 -0.07,-0.08 -0.08,-0.07 -0.09,-0.06 -0.1,-0.05 -0.11,-0.05 -0.12,-0.05 -0.13,-0.03 -0.14,-0.04 -0.15,-0.02 -0.17,-0.03 -0.18,-0.01 -0.09,-0.01 -0.09,-0.01 -0.1,-0.01 -0.11,0 -0.1,-0.01 -0.11,0 -0.12,0 -0.11,-0.01 -0.12,0 -0.13,0 -0.12,0 -0.13,0 -0.14,0 -0.14,0 -0.14,0 -0.15,0 -0.15,0 -0.15,0 0,-1.55 c 1.65,0.05 3.98,0.16 5.43,0.16 1.49,0 3.49,-0.07 5.49,-0.16 l 0,1.55 c -3.34,0 -3.89,0 -3.89,2.23 l 0,5.14 3.19,2.74 c 3.82,-5.29 5.92,-8.07 5.92,-8.97 0,-0.94 -0.85,-1.14 -1.78,-1.14 l 0,-1.55 c 1.39,0.05 4.32,0.16 5.37,0.16 1.44,0 2.89,-0.07 4.33,-0.16 l 0,1.55 c -1.84,0 -2.94,0 -4.83,2.64 l -6.33,8.92 c -0.04,0.09 -0.29,0.39 -0.29,0.55 0,0.18 3.53,3.18 4.03,3.57 3.14,2.55 5.23,2.64 6.28,2.69 l 0,1.55 c -1.44,-0.14 -2.09,-0.14 -3.49,-0.14 -1.79,0 -4.89,0.09 -5.57,0.14 l 0,-1.55 c 0.93,-0.05 1.43,-0.59 1.43,-1.23 0,-1 -0.68,-1.6 -1.09,-1.96 l -7.03,-6.07 0,23.92 -7.17,-0.55 0,-1.55 c 3.48,0 3.89,-0.34 3.89,-2.79 z"
           id="path6499"
           inkscape:connector-curvature="0"
           style="fill:#000000;stroke-width:0" /><path
           d="m 468,417.71 0.05,1.05 c 0.3,7.42 4.49,8.66 6.19,8.66 5.12,0 5.62,-6.72 5.62,-8.66 l -11.81,0 -0.05,-1.05 13.91,0 c 1.09,0 1.23,0 1.23,1.05 0,4.92 -2.68,9.75 -8.9,9.75 -5.78,0 -10.38,-5.12 -10.38,-11.36 0,-6.67 5.24,-11.5 10.97,-11.5 6.08,0 8.31,5.53 8.31,6.47 0,0.5 -0.39,0.61 -0.64,0.61 -0.45,0 -0.54,-0.3 -0.65,-0.7 -1.74,-5.13 -6.22,-5.13 -6.72,-5.13 -2.5,0 -4.49,1.49 -5.63,3.33 -1.5,2.39 -1.5,5.69 -1.5,7.48 z"
           id="path6501"
           inkscape:connector-curvature="0"
           style="fill:#000000;stroke-width:0" /><path
           d="m 490.04,423.34 0,-13.36 c 0,-2.23 -0.55,-2.23 -3.9,-2.23 l 0,-1.55 c 1.75,0.05 4.29,0.16 5.63,0.16 1.3,0 3.89,-0.11 5.58,-0.16 l 0,1.55 c -3.33,0 -3.88,0 -3.88,2.23 l 0,9.17 c 0,5.19 3.53,7.97 6.72,7.97 3.14,0 3.69,-2.69 3.69,-5.53 l 0,-11.61 c 0,-2.23 -0.55,-2.23 -3.89,-2.23 l 0,-1.55 c 1.75,0.05 4.3,0.16 5.64,0.16 1.3,0 3.87,-0.11 5.58,-0.16 l 0,1.55 c -2.6,0 -3.85,0 -3.89,1.5 l 0,9.51 c 0,4.28 0,5.83 -1.55,7.61 -0.69,0.86 -2.34,1.84 -5.22,1.84 -3.64,0 -5.98,-2.14 -7.37,-5.21 l 0,5.21 -7.04,-0.54 0,-1.55 c 3.49,0 3.9,-0.34 3.9,-2.78 z"
           id="path6503"
           inkscape:connector-curvature="0"
           style="fill:#000000;stroke-width:0" /><path
           d="m 522.63,415.87 0.11,-0.02 0.13,-0.02 0.14,-0.03 0.16,-0.04 0.16,-0.04 0.18,-0.04 0.19,-0.05 0.2,-0.06 0.21,-0.06 0.21,-0.07 0.21,-0.08 0.22,-0.08 0.22,-0.1 0.22,-0.1 0.22,-0.11 0.22,-0.12 0.22,-0.14 0.21,-0.14 0.2,-0.15 0.2,-0.16 0.19,-0.18 0.18,-0.19 0.17,-0.2 0.16,-0.21 0.14,-0.22 0.07,-0.12 0.06,-0.12 0.06,-0.13 0.05,-0.12 0.05,-0.14 0.05,-0.13 0.04,-0.14 0.03,-0.14 0.03,-0.15 0.03,-0.15 0.02,-0.16 0.01,-0.15 0.01,-0.17 0.01,-0.16 c 0,-2.53 -1.75,-4.53 -5.63,-4.53 -4.19,0 -5.98,2.84 -6.94,7.07 -0.14,0.64 -0.18,0.85 -0.68,0.85 -0.66,0 -0.66,-0.35 -0.66,-1.25 l 0,-6.58 c 0,-0.84 0,-1.19 0.55,-1.19 0.25,0 0.29,0.05 1.25,1 0.09,0.1 0.09,0.19 1,1.14 2.19,-2.09 4.44,-2.14 5.48,-2.14 5.72,0 8.02,3.35 8.02,6.92 0,2.64 -1.5,4.14 -2.1,4.74 -1.64,1.59 -3.59,2 -5.68,2.39 -2.78,0.55 -6.13,1.2 -6.13,4.09 0,1.74 1.3,3.78 5.58,3.78 5.48,0 5.73,-4.48 5.83,-6.03 0.06,-0.45 0.5,-0.45 0.61,-0.45 0.64,0 0.64,0.25 0.64,1.2 l 0,5.03 c 0,0.85 0,1.19 -0.55,1.19 -0.25,0 -0.34,0 -1,-0.59 -0.14,-0.21 -0.64,-0.64 -0.84,-0.8 -1.89,1.39 -3.94,1.39 -4.69,1.39 -6.08,0 -7.97,-3.33 -7.97,-6.12 0,-1.74 0.8,-3.14 2.14,-4.24 1.6,-1.29 3,-1.59 6.58,-2.28 z"
           id="path6505"
           inkscape:connector-curvature="0"
           style="fill:#000000;stroke-width:0" /></g>    </g>
    <g
       id="g6747"
       transform="matrix(0.27644455,0,0,0.27644444,321.93866,313.87518)">
      <g
         id="g6749"
         transform="matrix(1.0629921,0,0,-1.0629921,-186.02362,789.27165)"
         xml:space="preserve"
         stroke-miterlimit="10.433"
         font-style="normal"
         font-variant="normal"
         font-weight="normal"
         font-stretch="normal"
         font-size-adjust="none"
         letter-spacing="normal"
         word-spacing="normal"
         style="font-style:normal;font-variant:normal;font-weight:normal;font-stretch:normal;letter-spacing:normal;word-spacing:normal;text-anchor:start;fill:none;fill-opacity:1;fill-rule:evenodd;stroke:#000000;stroke-width:3.61736274;stroke-linecap:butt;stroke-linejoin:miter;stroke-miterlimit:10.43299961;stroke-dasharray:none;stroke-dashoffset:0;stroke-opacity:1"><path
           d="m 392.88,439.14 -0.02,0.05 -0.02,0.05 -0.02,0.04 -0.02,0.05 -0.04,0.09 -0.03,0.08 -0.04,0.07 -0.04,0.07 -0.03,0.07 -0.04,0.06 -0.03,0.05 -0.04,0.05 -0.03,0.05 -0.04,0.04 -0.04,0.04 -0.04,0.04 -0.04,0.03 -0.04,0.02 -0.05,0.03 -0.05,0.02 -0.05,0.02 -0.05,0.01 -0.06,0.02 -0.06,0.01 -0.06,0.01 -0.06,0 -0.07,0.01 -0.08,0 -0.08,0.01 -0.08,0 -0.09,0 -0.09,0 -0.1,0 -0.11,0 -8.42,0 0,-1.55 1.21,0 c 3.82,0 3.92,-0.54 3.92,-2.34 l 0,-24.91 c 0,-1.34 0,-3.68 -5.13,-3.68 l 0,-1.55 c 1.75,0.05 4.19,0.16 5.83,0.16 1.64,0 4.09,-0.11 5.83,-0.16 l 0,1.55 c -5.13,0 -5.13,2.34 -5.13,3.68 l 0,26.85 0.05,0 12,-30.99 c 0.25,-0.64 0.5,-1.09 1,-1.09 0.55,0 0.7,0.41 0.89,0.95 l 12.27,31.53 0.04,0 0,-28.59 c 0,-1.8 -0.09,-2.34 -3.93,-2.34 l -1.19,0 0,-1.55 c 1.84,0.16 5.22,0.16 7.17,0.16 1.94,0 5.28,0 7.13,-0.16 l 0,1.55 -1.21,0 c -3.83,0 -3.93,0.54 -3.93,2.34 l 0,26.25 c 0,1.8 0.1,2.34 3.93,2.34 l 1.21,0 0,1.55 -8.43,0 c -1.29,0 -1.29,-0.05 -1.64,-0.95 l -10.92,-28.05 z"
           id="path6751"
           inkscape:connector-curvature="0"
           style="fill:#000000;stroke-width:0" /></g>    </g>
    <g
       id="g6879"
       transform="matrix(0.31889505,0,0,0.31889493,-6.0060388,384.41408)">
      <g
         word-spacing="normal"
         letter-spacing="normal"
         font-size-adjust="none"
         font-stretch="normal"
         font-weight="normal"
         font-variant="normal"
         font-style="normal"
         stroke-miterlimit="10.433"
         xml:space="preserve"
         transform="matrix(1.0629921,0,0,-1.0629921,-186.02362,789.27165)"
         id="g6881"
         style="font-style:normal;font-variant:normal;font-weight:normal;font-stretch:normal;letter-spacing:normal;word-spacing:normal;text-anchor:start;fill:none;fill-opacity:1;fill-rule:evenodd;stroke:#000000;stroke-width:3.1358285;stroke-linecap:butt;stroke-linejoin:miter;stroke-miterlimit:10.43299961;stroke-dasharray:none;stroke-dashoffset:0;stroke-opacity:1"><path
           id="path6883"
           d="m 398.66,420.75 0.19,-0.5 0.2,-0.51 0.39,-1.05 0.39,-1.08 0.4,-1.1 0.39,-1.1 0.39,-1.09 0.37,-1.07 0.19,-0.53 0.18,-0.51 0.17,-0.5 0.18,-0.49 0.16,-0.47 0.17,-0.45 0.16,-0.44 0.15,-0.42 0.15,-0.39 0.14,-0.37 0.13,-0.35 0.13,-0.32 0.12,-0.29 0.12,-0.26 0.1,-0.23 0.1,-0.2 0.09,-0.16 0.07,-0.12 c 0.8,-1.1 1.3,-1.1 2.65,-1.1 l 1.09,0 c 0.5,0.05 0.55,0.35 0.55,0.5 0,0.14 -0.1,0.25 -0.25,0.46 -0.49,0.54 -0.8,1.28 -1.14,2.28 l -10.16,28.34 c -1.05,2.89 -3.75,3.55 -6.08,3.55 -0.25,0 -0.91,0 -0.91,-0.55 0,-0.41 0.41,-0.5 0.46,-0.5 1.64,-0.3 1.98,-0.59 3.23,-3.98 l 4.83,-13.55 -13.75,-13.66 c -0.59,-0.59 -0.89,-0.9 -0.89,-1.54 0,-0.85 0.7,-1.44 1.5,-1.44 0.8,0 1.23,0.55 1.64,1.05 z"
           inkscape:connector-curvature="0"
           style="fill:#000000;stroke-width:0" /></g>    </g>
    <g
       id="g7017"
       transform="matrix(0.31889505,0,0,0.31889493,301.49396,382.62837)">
      <g
         id="g7019"
         transform="matrix(1.0629921,0,0,-1.0629921,-186.02362,789.27165)"
         xml:space="preserve"
         stroke-miterlimit="10.433"
         font-style="normal"
         font-variant="normal"
         font-weight="normal"
         font-stretch="normal"
         font-size-adjust="none"
         letter-spacing="normal"
         word-spacing="normal"
         style="font-style:normal;font-variant:normal;font-weight:normal;font-stretch:normal;letter-spacing:normal;word-spacing:normal;text-anchor:start;fill:none;fill-opacity:1;fill-rule:evenodd;stroke:#000000;stroke-width:3.1358285;stroke-linecap:butt;stroke-linejoin:miter;stroke-miterlimit:10.43299961;stroke-dasharray:none;stroke-dashoffset:0;stroke-opacity:1"><path
           d="m 406.74,423.14 0.47,0.11 0.48,0.12 0.48,0.14 0.48,0.15 0.49,0.16 0.48,0.18 0.48,0.19 0.47,0.2 0.47,0.22 0.47,0.23 0.46,0.24 0.44,0.25 0.44,0.27 0.43,0.28 0.42,0.29 0.4,0.3 0.39,0.31 0.37,0.32 0.36,0.34 0.33,0.35 0.32,0.35 0.29,0.37 0.28,0.38 0.25,0.39 0.22,0.4 0.2,0.41 0.17,0.42 0.15,0.43 0.11,0.44 0.08,0.45 0.05,0.46 0.02,0.47 c 0,4.28 -4.48,7.47 -11,7.47 l -14.2,0 c -1,0 -1.45,0 -1.45,-1 0,-0.55 0.45,-0.55 1.4,-0.55 0.1,0 1.05,0 1.89,-0.09 0.89,-0.11 1.35,-0.16 1.35,-0.8 0,-0.2 -0.05,-0.36 -0.21,-0.95 l -6.67,-26.75 c -0.5,-1.95 -0.59,-2.34 -4.53,-2.34 -0.91,0 -1.34,0 -1.34,-1 0,-0.55 0.59,-0.55 0.68,-0.55 1.41,0 4.89,0.16 6.28,0.16 1.4,0 4.94,-0.16 6.33,-0.16 0.41,0 1,0 1,1 0,0.55 -0.45,0.55 -1.39,0.55 -1.84,0 -3.25,0 -3.25,0.89 0,0.29 0.11,0.54 0.16,0.84 l 3.28,13.2 5.94,0 -0.05,1.11 -5.59,0 3.25,13 c 0.29,1.19 0.43,1.69 1.39,1.85 0.45,0.04 2.04,0.04 3.03,0.04 3.55,0 9.08,0 9.08,-4.93 0,-1.69 -0.8,-5.13 -2.75,-7.07 -1.28,-1.29 -3.93,-2.89 -8.41,-2.89 l 0.05,-1.11 c 4.53,0 5.42,-2.78 5.42,-4.53 0,-0.75 -0.39,-2.28 -0.69,-3.44 -0.36,-1.39 -0.8,-3.23 -0.8,-4.23 0,-5.37 5.97,-5.37 6.63,-5.37 4.23,0 5.97,5.03 5.97,5.73 0,0.59 -0.55,0.59 -0.6,0.59 -0.45,0 -0.54,-0.36 -0.64,-0.7 -1.25,-3.69 -3.39,-4.53 -4.54,-4.53 -1.64,0 -1.99,1.09 -1.99,3.05 0,1.53 0.3,4.07 0.5,5.67 0.1,0.7 0.21,1.64 0.21,2.34 0,3.83 -3.35,5.38 -4.69,5.88 z"
           id="path7021"
           inkscape:connector-curvature="0"
           style="fill:#000000;stroke-width:0" /></g>    </g>
    <g
       id="g7161"
       transform="matrix(0.31889505,0,0,0.31889493,84.708243,459.77122)">
      <g
         word-spacing="normal"
         letter-spacing="normal"
         font-size-adjust="none"
         font-stretch="normal"
         font-weight="normal"
         font-variant="normal"
         font-style="normal"
         stroke-miterlimit="10.433"
         xml:space="preserve"
         transform="matrix(1.0629921,0,0,-1.0629921,-186.02362,789.27165)"
         id="g7163"
         style="font-style:normal;font-variant:normal;font-weight:normal;font-stretch:normal;letter-spacing:normal;word-spacing:normal;text-anchor:start;fill:none;fill-opacity:1;fill-rule:evenodd;stroke:#000000;stroke-width:3.1358285;stroke-linecap:butt;stroke-linejoin:miter;stroke-miterlimit:10.43299961;stroke-dasharray:none;stroke-dashoffset:0;stroke-opacity:1"><path
           id="path7165"
           d="m 399.52,436.34 0.04,0.16 0.04,0.16 0.04,0.15 0.04,0.15 0.04,0.13 0.05,0.13 0.05,0.13 0.05,0.11 0.06,0.12 0.06,0.1 0.08,0.1 0.08,0.09 0.09,0.09 0.1,0.08 0.11,0.08 0.12,0.07 0.13,0.06 0.15,0.06 0.16,0.06 0.18,0.05 0.09,0.02 0.1,0.02 0.1,0.02 0.11,0.02 0.11,0.02 0.11,0.02 0.12,0.02 0.13,0.01 0.13,0.01 0.13,0.02 0.14,0.01 0.15,0.01 0.15,0.01 0.16,0.01 0.16,0.01 0.17,0.01 0.17,0 0.18,0.01 0.18,0 0.19,0.01 0.2,0 0.2,0 0.21,0 0.22,0 c 1.49,0 1.89,0 1.89,0.96 0,0.59 -0.55,0.59 -0.8,0.59 -1.65,0 -5.73,-0.16 -7.37,-0.16 -1.5,0 -5.14,0.16 -6.63,0.16 -0.35,0 -0.95,0 -0.95,-1 0,-0.55 0.45,-0.55 1.39,-0.55 0.11,0 1.05,0 1.91,-0.09 0.89,-0.11 1.34,-0.16 1.34,-0.8 0,-0.2 -0.06,-0.36 -0.2,-0.95 l -6.67,-26.75 c -0.5,-1.95 -0.61,-2.34 -4.55,-2.34 -0.84,0 -1.34,0 -1.34,-1 0,-0.55 0.45,-0.55 1.34,-0.55 l 23.08,0 c 1.19,0 1.23,0 1.55,0.84 l 3.92,10.77 c 0.2,0.55 0.2,0.64 0.2,0.7 0,0.19 -0.14,0.55 -0.59,0.55 -0.46,0 -0.5,-0.25 -0.85,-1.05 -1.7,-4.59 -3.89,-10.26 -12.51,-10.26 l -4.67,0 c -0.71,0 -0.8,0 -1.1,0.04 -0.5,0.05 -0.65,0.1 -0.65,0.5 0,0.14 0,0.25 0.25,1.14 z"
           inkscape:connector-curvature="0"
           style="fill:#000000;stroke-width:0" /></g>    </g>
    <g
       id="g7311"
       transform="matrix(0.31889505,0,0,0.31889493,120.42253,331.91408)">
      <g
         id="g7313"
         transform="matrix(1.0629921,0,0,-1.0629921,-186.02362,789.27165)"
         xml:space="preserve"
         stroke-miterlimit="10.433"
         font-style="normal"
         font-variant="normal"
         font-weight="normal"
         font-stretch="normal"
         font-size-adjust="none"
         letter-spacing="normal"
         word-spacing="normal"
         style="font-style:normal;font-variant:normal;font-weight:normal;font-stretch:normal;letter-spacing:normal;word-spacing:normal;text-anchor:start;fill:none;fill-opacity:1;fill-rule:evenodd;stroke:#000000;stroke-width:3.1358285;stroke-linecap:butt;stroke-linejoin:miter;stroke-miterlimit:10.43299961;stroke-dasharray:none;stroke-dashoffset:0;stroke-opacity:1"><path
           d="m 403.39,427.67 0,0.02 0,0.02 0,0.02 0,0.02 -0.01,0.02 0,0.02 -0.01,0.02 0,0.02 -0.01,0.02 -0.01,0.02 -0.01,0.02 -0.01,0.03 -0.01,0.02 -0.01,0.02 -0.02,0.02 -0.01,0.01 -0.02,0.02 -0.01,0.02 -0.02,0.02 -0.02,0.01 -0.02,0.02 -0.02,0.01 -0.02,0.02 -0.03,0.01 -0.02,0.01 -0.03,0.01 -0.02,0.01 -0.03,0 -0.03,0.01 -0.03,0 -0.03,0.01 -0.02,0 -0.02,0 c -0.54,0 -2.53,-1.99 -3.37,-3.44 -1.11,2.69 -3.05,3.48 -4.64,3.48 l 0,-1.09 c 3.23,0 3.94,-4.03 3.94,-4.37 0,-0.32 -2.74,-11.22 -2.89,-11.43 -0.75,-1.39 -3.54,-4.57 -6.33,-4.57 l 0,0 c -2.99,0 -3.19,3.84 -3.19,4.68 0,2.39 1.44,7.82 2.3,9.91 1.53,3.69 4.12,5.78 6.17,5.78 l 0,1.09 c -5.88,0 -12,-7.37 -12,-14.59 0,-4.87 2.94,-7.97 6.56,-7.97 2.16,0 4.1,1.19 5.89,2.99 -0.45,-1.74 -2.09,-8.47 -2.25,-8.93 -0.39,-1.39 -0.79,-1.59 -3.58,-1.64 -0.65,0 -1.15,0 -1.15,-1 0,-0.04 0,-0.54 0.65,-0.54 1.6,0 3.33,0.15 4.99,0.15 1.69,0 3.48,-0.15 5.12,-0.15 0.25,0 0.89,0 0.89,1 0,0.54 -0.48,0.54 -1.28,0.54 -2.4,0 -2.4,0.36 -2.4,0.8 0,0.36 0.11,0.66 0.2,1.09 z"
           id="path7315"
           inkscape:connector-curvature="0"
           style="fill:#000000;stroke-width:0" /></g>    </g>
    <path
       inkscape:connector-curvature="0"
       id="path7556"
       d="m 216.03358,452.26378 -51.6652,0"
       style="fill:none;fill-rule:evenodd;stroke:#000000;stroke-width:1px;stroke-linecap:butt;stroke-linejoin:miter;stroke-opacity:1;marker-start:url(#marker7728);marker-end:url(#marker7558)" />
  </g>
</svg>
